<svg xmlns="http://www.w3.org/2000/svg" xmlns:xlink="http://www.w3.org/1999/xlink" version="1.1" x="0px" y="0px" viewBox="0 0 100 125" style="enable-background:new 0 0 100 100;" xml:space="preserve" width="100%" height="100%"><path d="M59.195,58.026c0.528,1.189,1.291,2.342,2.273,3.443c-1.643,1.69-4.159,3.113-7.235,4.097  c-0.233,0.515-0.46,1.097-0.646,1.721c-0.906,3.041-0.47,5.622,1.289,7.669c0.023,0.025,0.041,0.054,0.059,0.083  c0.951,0.426,1.605,0.932,1.678,1.473c0.217,1.67-5.238,3.034-8.018,3.395c-2.78,0.362-5.209-0.699-5.425-2.37  c-0.216-1.668,1.859-3.314,4.639-3.678c1.441-0.188,3.693,0.084,5.561,0.619c-0.619-1.004-0.996-2.115-1.124-3.311  c-0.142-1.304,0.011-2.708,0.45-4.175c0.114-0.378,0.24-0.741,0.374-1.082c-2.482,0.675-5.275,1.075-8.233,1.119  c-3.669,0.055-7.102-0.444-10.016-1.354c-0.214,0.489-0.422,1.032-0.593,1.612c-0.907,3.041-0.474,5.622,1.286,7.669  c0.025,0.03,0.048,0.062,0.063,0.095c0.779,0.5,1.285,1.032,1.289,1.533c0.021,1.683-5.558,2.399-8.359,2.434  c-2.803,0.033-5.09-1.304-5.111-2.988c-0.02-1.685,2.235-3.075,5.037-3.109c1.435-0.018,3.605,0.503,5.385,1.239  c-0.506-0.918-0.82-1.922-0.935-2.992c-0.141-1.304,0.011-2.708,0.452-4.175c0.173-0.582,0.38-1.125,0.591-1.615  c-2.182-0.777-4.032-1.792-5.408-2.978c0.292-0.259,0.578-0.527,0.855-0.807c1.523-1.539,2.718-3.331,3.552-5.329  c0.865-2.064,1.303-4.258,1.303-6.519c0-0.259-0.012-0.521-0.035-0.779c2.96-1.077,6.517-1.731,10.347-1.79  c5.894-0.087,11.177,1.255,14.672,3.429c-0.326,0.653-0.562,1.341-0.703,2.062C58.161,54.421,58.395,56.225,59.195,58.026z   M33.288,49.745c0,8.736-7.008,15.82-15.652,15.82c-8.644,0-15.651-7.084-15.651-15.82c0-3.406,1.874-6.151,2.875-9.14  c3.298-9.851,8.017-7.488,10.021-6.729c-0.105-0.571-0.362-1.657-0.962-3.035c-0.792-1.82-2.354-4.522-5.331-7.245  c-0.487,0.769-1.346,1.281-2.325,1.281c-1.52,0-2.753-1.233-2.753-2.753c0-1.52,1.233-2.752,2.753-2.752  c1.52,0,2.752,1.233,2.752,2.752c0,0.187-0.018,0.367-0.053,0.544c3.287,2.928,4.988,5.875,5.839,7.845  c0.751,1.739,0.989,3.029,1.058,3.517c0.372-0.033,1.265-0.105,1.777-0.105c0.925,0,2.456,0.233,3.219,0.36  c0.115-0.694,1.008-4.711,6.864-9.92c-0.276-0.429-0.436-0.937-0.436-1.483c0-1.521,1.233-2.753,2.752-2.753  c1.521,0,2.754,1.233,2.754,2.753c0,1.52-1.233,2.752-2.754,2.752c-0.634,0-1.218-0.215-1.683-0.576  c-5.153,4.582-6.297,8.172-6.525,9.161c1.678-0.394,7.046-0.971,9.034,7.064C31.392,43.418,33.288,46.632,33.288,49.745z   M24.852,52.581c0-0.259-0.21-0.469-0.469-0.469s-0.468,0.207-0.471,0.464c-0.001,0.055-0.154,2.577-1.945,4.204  c-1.145,1.037-2.719,1.492-4.681,1.351c-2.194-0.159-3.83-0.876-4.864-2.132c-1.499-1.82-1.232-4.204-1.228-4.239  c0.032-0.258-0.15-0.492-0.407-0.524c-0.257-0.031-0.493,0.15-0.525,0.408c-0.015,0.114-0.33,2.8,1.427,4.944  c1.204,1.469,3.064,2.303,5.53,2.48c0.259,0.019,0.511,0.027,0.757,0.027c1.914,0,3.485-0.56,4.678-1.67  C24.723,55.5,24.852,52.61,24.852,52.581z M27.355,41.917c0-2.787-2.26-5.045-5.047-5.045c-1.77,0-3.327,0.911-4.228,2.292  c-0.793-1.75-2.555-2.964-4.6-2.964c-2.786,0-5.046,2.259-5.046,5.047c0,2.787,2.26,5.046,5.046,5.046  c1.771,0,3.329-0.911,4.23-2.292l0,0c0.792,1.748,2.553,2.964,4.597,2.964C25.095,46.965,27.355,44.706,27.355,41.917z   M13.116,39.528c0-0.494,0.245-0.925,0.608-1.154c-0.018-0.017-0.035-0.034-0.053-0.049c-0.171-0.148-0.358-0.23-0.555-0.23  c-0.787,0-1.425,1.31-1.425,2.924s0.638,2.923,1.425,2.923s1.426-1.31,1.426-2.923c0-0.062-0.002-0.124-0.004-0.186  c-0.071,0.016-0.144,0.022-0.219,0.022C13.654,40.855,13.116,40.261,13.116,39.528z M22.675,40.457c0-0.495,0.246-0.927,0.609-1.153  c-0.018-0.019-0.036-0.035-0.054-0.05c-0.171-0.149-0.358-0.23-0.555-0.23c-0.787,0-1.425,1.309-1.425,2.924  c0,1.614,0.638,2.922,1.425,2.922s1.426-1.308,1.426-2.922c0-0.063-0.002-0.124-0.003-0.186c-0.071,0.014-0.145,0.023-0.22,0.023  C23.213,41.784,22.675,41.19,22.675,40.457z M80.934,45.075c-10.62-2.093-20.244,1.388-21.506,7.771  c-1.115,5.669,4.743,11.721,13.499,14.472c-0.367,1.35-0.487,2.643-0.358,3.849c0.138,1.263,0.546,2.428,1.226,3.477  c-1.987-0.43-4.49-0.517-6.012-0.17c-2.729,0.625-4.638,2.464-4.265,4.104c0.374,1.643,2.895,2.466,5.628,1.841  c2.73-0.624,8.032-2.504,7.656-4.146c-0.109-0.48-0.692-0.886-1.53-1.204c-0.018-0.04-0.042-0.077-0.072-0.112  c-1.703-1.979-2.163-4.459-1.37-7.37c0.828,0.232,1.676,0.438,2.547,0.609c10.617,2.091,20.246-1.389,21.502-7.773  C99.139,54.036,91.55,47.166,80.934,45.075z M79.804,49.318c0,1.389-1.125,2.514-2.513,2.514s-2.51-1.125-2.51-2.514  c0-1.387,1.122-2.511,2.51-2.511S79.804,47.931,79.804,49.318z M88.643,53.7c0,1.878-1.524,3.398-3.4,3.398  c-1.878,0-3.398-1.521-3.398-3.398c0-1.877,1.521-3.397,3.398-3.397C87.118,50.303,88.643,51.823,88.643,53.7z"/><text x="0" y="115" fill="#000000" font-size="5px" font-weight="bold" font-family="'Helvetica Neue', Helvetica, Arial-Unicode, Arial, Sans-serif">Created by Iconic</text><text x="0" y="120" fill="#000000" font-size="5px" font-weight="bold" font-family="'Helvetica Neue', Helvetica, Arial-Unicode, Arial, Sans-serif">from the Noun Project</text></svg>